<svg width="800" height="420" fill="none" xmlns="http://www.w3.org/2000/svg">
  <path fill="url(#a)" d="M0 0h800v420H0z" />
  <path
    d="M81.912 111.696H67.368V98.4h-6.576V132h6.576v-14.4h14.544V132h6.576V98.4h-6.576v13.296Zm23.969 20.736c3.12 0 5.664-.768 7.632-2.304 2.016-1.584 3.216-3.552 3.552-5.904h-6.288c-.624 1.92-2.256 2.88-4.896 2.88-3.6 0-5.424-2.208-5.472-5.808h16.992V118.8c0-3.504-1.056-6.432-3.12-8.736-2.064-2.304-4.896-3.456-8.496-3.456-3.84 0-6.816 1.248-8.88 3.696-2.064 2.448-3.072 5.52-3.072 9.264 0 3.744 1.056 6.816 3.216 9.264 2.16 2.4 5.088 3.6 8.832 3.6Zm-5.424-15.408c.144-3.024 1.872-5.04 5.328-5.04 3.216 0 4.896 2.016 5.04 5.04h-10.368Zm18.433-9.504 8.496 24.384.912.048-3.792 10.56v.48h6.912l12.912-35.472v-.48h-6.912l-5.952 18.24h-.192l-5.76-18.24h-6.624v.48Zm29.093 31.248 3.696-11.568v-.48h-7.152l-1.488 11.568v.48h4.944ZM177.619 132V98.4h-6.624V132h6.624Zm9.98-21.552 3.696-11.568v-.48h-7.152l-1.488 11.568v.48h4.944Zm35.142-3.84c-3.408 0-5.952 1.248-7.632 3.696h-.144c-1.488-2.448-3.984-3.696-7.488-3.696-3.024 0-5.376 1.104-7.008 3.264h-.192l-.48-2.832h-5.76V132h6.432v-13.824c0-3.504 2.016-5.712 5.04-5.712 2.928 0 4.368 1.68 4.368 4.992V132h6.384v-13.824c0-3.504 1.728-5.712 4.752-5.712 2.88 0 4.32 1.68 4.32 4.992V132h6.432v-16.368c0-5.52-3.504-9.024-9.024-9.024ZM258.144 132v-23.328h.192l10.56 17.712h.48l10.56-17.568h.192V132h6.336V98.4h-7.2l-9.984 16.848h-.192L259.104 98.4h-7.296V132h6.336Zm42.378.432c3.12 0 5.424-1.008 6.96-3.024h.192l.48 2.592h5.712v-16.512c0-5.232-4.032-8.88-10.608-8.88-3.312 0-5.856.816-7.68 2.4-1.776 1.584-2.688 3.648-2.688 6.096h6.048c0-1.872 1.536-3.216 4.176-3.216 2.928 0 4.32 1.488 4.32 3.648v1.392h-5.568c-6.72 0-10.08 2.976-10.08 7.728 0 4.56 3.312 7.776 8.736 7.776Zm1.536-5.088c-2.496 0-3.888-1.2-3.888-2.976 0-1.872 1.44-2.976 4.176-2.976h5.088v1.344c0 2.544-2.112 4.608-5.376 4.608ZM334.169 132v-5.616h-2.88c-2.256 0-3.216-1.008-3.216-3.36v-10.512h6v-5.472h-6v-6.576h-6.192v6.576h-4.32v5.472h4.08v11.904c0 4.656 2.496 7.584 7.824 7.584h4.704Zm12.431.432c3.12 0 5.424-1.008 6.96-3.024h.192l.48 2.592h5.712v-16.512c0-5.232-4.032-8.88-10.608-8.88-3.312 0-5.856.816-7.68 2.4-1.776 1.584-2.688 3.648-2.688 6.096h6.048c0-1.872 1.536-3.216 4.176-3.216 2.928 0 4.32 1.488 4.32 3.648v1.392h-5.568c-6.72 0-10.08 2.976-10.08 7.728 0 4.56 3.312 7.776 8.736 7.776Zm1.536-5.088c-2.496 0-3.888-1.2-3.888-2.976 0-1.872 1.44-2.976 4.176-2.976h5.088v1.344c0 2.544-2.112 4.608-5.376 4.608ZM371.751 132v-13.824c0-3.504 2.064-5.712 5.136-5.712s4.608 1.68 4.608 4.992V132h6.432v-16.368c0-5.52-3.552-9.024-9.072-9.024-3.12 0-5.472 1.104-7.104 3.264h-.192l-.48-2.832h-5.76V132h6.432Zm28.031 0v-6.864h-7.104V132h7.104Z"
    fill="#4A5568"
  />
  <path
    d="M63.768 216v-25.2H60.6V216h3.168Zm26.348.324c4.86 0 7.776-3.6 7.812-9.54-.036-2.844-.72-5.112-2.052-6.876-1.332-1.764-3.276-2.628-5.76-2.628-2.556 0-4.392.972-5.544 2.88h-.144v-10.8h-3.024V216h2.628l.396-2.556h.144c1.152 1.908 2.988 2.88 5.544 2.88Zm-.504-2.7c-3.456 0-5.256-2.916-5.256-6.84s1.8-6.804 5.256-6.804c3.6 0 5.256 2.808 5.256 6.804 0 4.032-1.656 6.84-5.256 6.84Zm19.427 2.664c2.7 0 4.572-1.08 5.688-3.204h.144l.252 2.916h2.628v-18.396h-3.024v10.116c0 3.708-1.8 5.868-4.86 5.868-2.844 0-4.248-1.512-4.248-4.536v-11.448h-3.024v11.916c0 4.212 2.412 6.768 6.444 6.768Zm18.038-22.5v-3.528h-3.384v3.528h3.384Zm-.18 22.212v-18.396h-3.024V216h3.024Zm9.14 0v-26.64h-3.024V216h3.024Zm12.489.324c2.556 0 4.392-.972 5.544-2.88h.144l.396 2.556h2.628v-26.64h-3.024v10.8h-.144c-1.152-1.908-2.988-2.88-5.544-2.88-2.484 0-4.428.864-5.76 2.628-1.332 1.764-2.016 4.032-2.052 6.876.036 5.94 2.952 9.54 7.812 9.54Zm.504-2.7c-3.6 0-5.256-2.808-5.256-6.84 0-3.996 1.656-6.804 5.256-6.804 3.456 0 5.256 2.88 5.256 6.804 0 3.924-1.8 6.84-5.256 6.84Zm28.14 10.62v-10.8h.144c1.152 1.908 2.988 2.88 5.544 2.88 2.484 0 4.428-.864 5.76-2.628 1.332-1.764 2.016-4.032 2.052-6.876-.036-5.94-2.952-9.54-7.812-9.54-2.556 0-4.392.972-5.544 2.88h-.144l-.396-2.556h-2.628v26.64h3.024Zm5.184-10.62c-3.456 0-5.256-2.88-5.256-6.804 0-3.924 1.8-6.84 5.256-6.84 3.6 0 5.256 2.808 5.256 6.84 0 3.996-1.656 6.804-5.256 6.804Zm20.255 2.7c1.98 0 3.708-.504 5.148-1.548 1.44-1.044 2.268-2.412 2.52-4.104h-3.024c-.468 1.908-2.196 2.952-4.644 2.952-3.348 0-5.184-2.304-5.184-5.904h13.104v-1.476c0-2.628-.684-4.788-2.088-6.444-1.404-1.692-3.348-2.52-5.868-2.52-2.7 0-4.788.9-6.192 2.664-1.404 1.764-2.124 4.068-2.124 6.876 0 2.808.72 5.112 2.196 6.876 1.476 1.764 3.528 2.628 6.156 2.628Zm-5.148-11.124c.108-3.06 1.836-5.22 5.112-5.22 3.132 0 4.824 2.16 4.824 5.22h-9.936Zm21.123 10.8v-8.928c0-4.5 1.692-6.768 5.076-6.768h1.44v-2.916h-1.656c-2.268 0-4.104 1.26-4.86 3.312h-.144l-.252-3.096h-2.628V216h3.024Zm15.883 0v-15.876h4.464v-2.52h-4.464V194.4c0-1.764 1.008-2.808 2.844-2.808h1.8V189h-2.304c-3.276 0-5.364 2.196-5.364 5.4v3.204h-3.276v2.52h3.276V216h3.024Zm15.672.324c2.736 0 4.788-.864 6.192-2.628 1.404-1.764 2.124-4.068 2.124-6.876 0-2.808-.72-5.112-2.124-6.876-1.404-1.764-3.492-2.664-6.192-2.664s-4.788.9-6.192 2.664c-1.404 1.764-2.124 4.068-2.124 6.876 0 2.808.684 5.112 2.088 6.876 1.404 1.764 3.456 2.628 6.228 2.628Zm0-2.7c-3.564 0-5.256-2.628-5.256-6.804s1.692-6.84 5.256-6.84c3.6 0 5.256 2.664 5.256 6.84s-1.656 6.804-5.256 6.804ZM266.502 216v-8.928c0-4.5 1.692-6.768 5.076-6.768h1.44v-2.916h-1.656c-2.268 0-4.104 1.26-4.86 3.312h-.144l-.252-3.096h-2.628V216h3.024Zm31.164-18.72c-2.844 0-4.824 1.08-5.94 3.204h-.144c-1.044-2.124-2.88-3.204-5.544-3.204-2.556 0-4.392 1.08-5.508 3.204h-.144l-.252-2.88h-2.628V216h3.024v-10.152c0-3.708 1.8-5.868 4.68-5.868 2.7 0 4.068 1.512 4.068 4.536V216h3.024v-10.152c0-3.708 1.728-5.868 4.608-5.868 2.7 0 4.068 1.512 4.068 4.536V216h3.024v-11.952c0-4.176-2.304-6.768-6.336-6.768Zm17.433 19.044c2.7 0 4.608-.972 5.76-2.916h.144l.216 2.592h2.556v-12.384c0-1.836-.648-3.348-1.908-4.536-1.26-1.188-3.024-1.8-5.292-1.8-2.052 0-3.708.54-5.04 1.62-1.296 1.08-1.944 2.484-1.944 4.248h2.916c.036-1.872 1.476-3.276 4.068-3.276 2.844 0 4.248 1.62 4.248 3.816v1.188h-4.536c-5.076 0-7.596 2.412-7.596 5.76 0 1.62.576 2.988 1.728 4.068 1.188 1.08 2.736 1.62 4.68 1.62Zm.54-2.52c-2.556 0-3.888-1.296-3.888-3.204 0-2.196 1.512-3.312 4.536-3.312h4.536v1.584c0 1.368-.468 2.52-1.44 3.492s-2.196 1.44-3.744 1.44ZM332.912 216v-10.152c0-3.708 1.8-5.868 4.86-5.868 2.844 0 4.248 1.512 4.248 4.536V216h3.024v-11.952c0-4.212-2.412-6.768-6.444-6.768-2.7 0-4.572 1.08-5.688 3.204h-.144l-.252-2.88h-2.628V216h3.024Zm27.102 0v-2.664h-2.16c-1.692 0-2.412-.756-2.412-2.52V200.16h4.5v-2.556h-4.5v-4.932h-2.952v4.932h-3.132v2.556h3.06v10.908c0 3.204 1.368 4.932 4.86 4.932h2.736Zm20.616.324c2.7 0 4.608-.972 5.76-2.916h.144l.216 2.592h2.556v-12.384c0-1.836-.648-3.348-1.908-4.536-1.26-1.188-3.024-1.8-5.292-1.8-2.052 0-3.708.54-5.04 1.62-1.296 1.08-1.944 2.484-1.944 4.248h2.916c.036-1.872 1.476-3.276 4.068-3.276 2.844 0 4.248 1.62 4.248 3.816v1.188h-4.536c-5.076 0-7.596 2.412-7.596 5.76 0 1.62.576 2.988 1.728 4.068 1.188 1.08 2.736 1.62 4.68 1.62Zm.54-2.52c-2.556 0-3.888-1.296-3.888-3.204 0-2.196 1.512-3.312 4.536-3.312h4.536v1.584c0 1.368-.468 2.52-1.44 3.492s-2.196 1.44-3.744 1.44Zm17.274 10.44v-10.8h.144c1.152 1.908 2.988 2.88 5.544 2.88 2.484 0 4.428-.864 5.76-2.628 1.332-1.764 2.016-4.032 2.052-6.876-.036-5.94-2.952-9.54-7.812-9.54-2.556 0-4.392.972-5.544 2.88h-.144l-.396-2.556h-2.628v26.64h3.024Zm5.184-10.62c-3.456 0-5.256-2.88-5.256-6.804 0-3.924 1.8-6.84 5.256-6.84 3.6 0 5.256 2.808 5.256 6.84 0 3.996-1.656 6.804-5.256 6.804Zm16.366 10.62v-10.8h.144c1.152 1.908 2.988 2.88 5.544 2.88 2.484 0 4.428-.864 5.76-2.628 1.332-1.764 2.016-4.032 2.052-6.876-.036-5.94-2.952-9.54-7.812-9.54-2.556 0-4.392.972-5.544 2.88h-.144l-.396-2.556h-2.628v26.64h3.024Zm5.184-10.62c-3.456 0-5.256-2.88-5.256-6.804 0-3.924 1.8-6.84 5.256-6.84 3.6 0 5.256 2.808 5.256 6.84 0 3.996-1.656 6.804-5.256 6.804ZM441.545 216v-26.64h-3.024V216h3.024Zm9.321-22.212v-3.528h-3.384v3.528h3.384Zm-.18 22.212v-18.396h-3.024V216h3.024Zm13.029.324c4.644 0 7.2-2.484 7.596-6.516h-3.024c-.252 2.448-1.872 3.852-4.608 3.852-3.6 0-5.256-2.7-5.256-6.84 0-4.068 1.656-6.84 5.256-6.84 2.628 0 4.356 1.476 4.536 3.924h3.024c-.288-3.924-2.844-6.624-7.56-6.624-5.365 0-8.316 3.672-8.316 9.54 0 5.904 2.916 9.504 8.352 9.504Zm17.602 0c2.7 0 4.608-.972 5.76-2.916h.144l.216 2.592h2.556v-12.384c0-1.836-.648-3.348-1.908-4.536-1.26-1.188-3.024-1.8-5.292-1.8-2.052 0-3.708.54-5.04 1.62-1.296 1.08-1.944 2.484-1.944 4.248h2.916c.036-1.872 1.476-3.276 4.068-3.276 2.844 0 4.248 1.62 4.248 3.816v1.188h-4.536c-5.076 0-7.596 2.412-7.596 5.76 0 1.62.576 2.988 1.728 4.068 1.188 1.08 2.736 1.62 4.68 1.62Zm.54-2.52c-2.556 0-3.888-1.296-3.888-3.204 0-2.196 1.512-3.312 4.536-3.312h4.536v1.584c0 1.368-.468 2.52-1.44 3.492s-2.196 1.44-3.744 1.44ZM504.963 216v-2.664h-2.16c-1.692 0-2.412-.756-2.412-2.52V200.16h4.5v-2.556h-4.5v-4.932h-2.952v4.932h-3.132v2.556h3.06v10.908c0 3.204 1.368 4.932 4.86 4.932h2.736Zm8.059-22.212v-3.528h-3.384v3.528h3.384Zm-.18 22.212v-18.396h-3.024V216h3.024Zm12.993.324c2.736 0 4.788-.864 6.192-2.628 1.404-1.764 2.124-4.068 2.124-6.876 0-2.808-.72-5.112-2.124-6.876-1.404-1.764-3.492-2.664-6.192-2.664s-4.788.9-6.192 2.664c-1.404 1.764-2.124 4.068-2.124 6.876 0 2.808.684 5.112 2.088 6.876 1.404 1.764 3.456 2.628 6.228 2.628Zm0-2.7c-3.564 0-5.256-2.628-5.256-6.804s1.692-6.84 5.256-6.84c3.6 0 5.256 2.664 5.256 6.84s-1.656 6.804-5.256 6.804ZM542.198 216v-10.152c0-3.708 1.8-5.868 4.86-5.868 2.844 0 4.248 1.512 4.248 4.536V216h3.024v-11.952c0-4.212-2.412-6.768-6.444-6.768-2.7 0-4.572 1.08-5.688 3.204h-.144l-.252-2.88h-2.628V216h3.024Zm24.329.324c2.052 0 3.78-.468 5.184-1.44 1.404-.972 2.088-2.268 2.088-3.888 0-3.06-1.62-4.5-5.22-5.328l-2.88-.54c-2.124-.324-3.204-1.188-3.204-2.592 0-1.728 1.476-2.7 3.78-2.7 2.412 0 4.032 1.116 4.14 3.384h2.952c0-3.6-2.916-5.94-7.092-5.94-4.032 0-6.696 2.196-6.696 5.256 0 2.7 1.656 4.536 4.68 5.148l3.672.684c1.872.396 2.808 1.296 2.808 2.628 0 1.764-1.404 2.628-4.212 2.628-2.736 0-4.5-1.296-4.5-3.708h-3.024c.108 3.996 3.096 6.408 7.524 6.408Zm-501.319 47c2.7 0 4.608-.972 5.76-2.916h.144l.216 2.592h2.556v-12.384c0-1.836-.648-3.348-1.908-4.536-1.26-1.188-3.024-1.8-5.292-1.8-2.052 0-3.708.54-5.04 1.62-1.296 1.08-1.944 2.484-1.944 4.248h2.916c.036-1.872 1.476-3.276 4.068-3.276 2.844 0 4.248 1.62 4.248 3.816v1.188h-4.536c-5.076 0-7.596 2.412-7.596 5.76 0 1.62.576 2.988 1.728 4.068 1.188 1.08 2.736 1.62 4.68 1.62Zm.54-2.52c-2.556 0-3.888-1.296-3.888-3.204 0-2.196 1.512-3.312 4.536-3.312h4.536v1.584c0 1.368-.468 2.52-1.44 3.492s-2.196 1.44-3.744 1.44ZM83.022 263v-10.152c0-3.708 1.8-5.868 4.86-5.868 2.844 0 4.248 1.512 4.248 4.536V263h3.024v-11.952c0-4.212-2.412-6.768-6.444-6.768-2.7 0-4.572 1.08-5.688 3.204h-.144l-.252-2.88h-2.628V263h3.024Zm24.617.324c2.556 0 4.392-.972 5.544-2.88h.144l.396 2.556h2.628v-26.64h-3.024v10.8h-.144c-1.152-1.908-2.988-2.88-5.544-2.88-2.484 0-4.428.864-5.76 2.628-1.332 1.764-2.016 4.032-2.052 6.876.036 5.94 2.952 9.54 7.812 9.54Zm.504-2.7c-3.6 0-5.256-2.808-5.256-6.84 0-3.996 1.656-6.804 5.256-6.804 3.456 0 5.256 2.88 5.256 6.804 0 3.924-1.8 6.84-5.256 6.84Zm31.489 2.7c2.556 0 4.392-.972 5.544-2.88h.144l.396 2.556h2.628v-26.64h-3.024v10.8h-.144c-1.152-1.908-2.988-2.88-5.544-2.88-2.484 0-4.428.864-5.76 2.628-1.332 1.764-2.016 4.032-2.052 6.876.036 5.94 2.952 9.54 7.812 9.54Zm.504-2.7c-3.6 0-5.256-2.808-5.256-6.84 0-3.996 1.656-6.804 5.256-6.804 3.456 0 5.256 2.88 5.256 6.804 0 3.924-1.8 6.84-5.256 6.84Zm21.235 2.7c1.98 0 3.708-.504 5.148-1.548 1.44-1.044 2.268-2.412 2.52-4.104h-3.024c-.468 1.908-2.196 2.952-4.644 2.952-3.348 0-5.184-2.304-5.184-5.904h13.104v-1.476c0-2.628-.684-4.788-2.088-6.444-1.404-1.692-3.348-2.52-5.868-2.52-2.7 0-4.788.9-6.192 2.664-1.404 1.764-2.124 4.068-2.124 6.876 0 2.808.72 5.112 2.196 6.876 1.476 1.764 3.528 2.628 6.156 2.628Zm-5.148-11.124c.108-3.06 1.836-5.22 5.112-5.22 3.132 0 4.824 2.16 4.824 5.22h-9.936Zm21.123 10.8v-26.64h-3.024V263h3.024Zm9.321-22.212v-3.528h-3.384v3.528h3.384Zm-.18 22.212v-18.396h-3.024V263h3.024Zm13.064 8.568c2.556 0 4.536-.72 5.976-2.124 1.44-1.404 2.16-3.168 2.16-5.364v-19.476h-2.628l-.396 2.556h-.144c-1.152-1.908-2.988-2.88-5.544-2.88-4.86 0-7.776 3.6-7.812 9.54.036 2.844.72 5.112 2.052 6.876 1.332 1.764 3.276 2.628 5.76 2.628 2.556 0 4.392-.972 5.544-2.88h.144v3.564c0 2.916-1.764 4.968-5.112 4.968-3.132 0-4.788-1.62-4.932-3.636h-2.916c.036 1.8.792 3.276 2.232 4.464 1.44 1.188 3.312 1.764 5.616 1.764Zm-.072-10.944c-3.6 0-5.256-2.808-5.256-6.804 0-4.032 1.656-6.84 5.256-6.84 3.456 0 5.256 2.916 5.256 6.84s-1.8 6.804-5.256 6.804ZM216.827 263v-10.08c0-3.708 1.908-5.94 4.932-5.94 2.88 0 4.32 1.512 4.32 4.536V263h3.024v-11.952c0-4.212-2.448-6.768-6.516-6.768-2.628 0-4.5 1.08-5.616 3.204h-.144V236.36h-3.024V263h3.024Zm27.242 0v-2.664h-2.16c-1.692 0-2.412-.756-2.412-2.52V247.16h4.5v-2.556h-4.5v-4.932h-2.952v4.932h-3.132v2.556h3.06v10.908c0 3.204 1.368 4.932 4.86 4.932h2.736Zm9.031 0v-15.876h4.464v-2.52H253.1V241.4c0-1.764 1.008-2.808 2.844-2.808h1.8V236h-2.304c-3.276 0-5.364 2.196-5.364 5.4v3.204H246.8v2.52h3.276V263h3.024Zm15.232.288c2.7 0 4.572-1.08 5.688-3.204h.144l.252 2.916h2.628v-18.396h-3.024v10.116c0 3.708-1.8 5.868-4.86 5.868-2.844 0-4.248-1.512-4.248-4.536v-11.448h-3.024v11.916c0 4.212 2.412 6.768 6.444 6.768ZM286.19 263v-26.64h-3.024V263h3.024Zm22.993.288c2.7 0 4.572-1.08 5.688-3.204h.144l.252 2.916h2.628v-18.396h-3.024v10.116c0 3.708-1.8 5.868-4.86 5.868-2.844 0-4.248-1.512-4.248-4.536v-11.448h-3.024v11.916c0 4.212 2.412 6.768 6.444 6.768Zm20.918.036c2.052 0 3.78-.468 5.184-1.44 1.404-.972 2.088-2.268 2.088-3.888 0-3.06-1.62-4.5-5.22-5.328l-2.88-.54c-2.124-.324-3.204-1.188-3.204-2.592 0-1.728 1.476-2.7 3.78-2.7 2.412 0 4.032 1.116 4.14 3.384h2.952c0-3.6-2.916-5.94-7.092-5.94-4.032 0-6.696 2.196-6.696 5.256 0 2.7 1.656 4.536 4.68 5.148l3.672.684c1.872.396 2.808 1.296 2.808 2.628 0 1.764-1.404 2.628-4.212 2.628-2.736 0-4.5-1.296-4.5-3.708h-3.024c.108 3.996 3.096 6.408 7.524 6.408Zm19.215 0c1.98 0 3.708-.504 5.148-1.548 1.44-1.044 2.268-2.412 2.52-4.104h-3.024c-.468 1.908-2.196 2.952-4.644 2.952-3.348 0-5.184-2.304-5.184-5.904h13.104v-1.476c0-2.628-.684-4.788-2.088-6.444-1.404-1.692-3.348-2.52-5.868-2.52-2.7 0-4.788.9-6.192 2.664-1.404 1.764-2.124 4.068-2.124 6.876 0 2.808.72 5.112 2.196 6.876 1.476 1.764 3.528 2.628 6.156 2.628Zm-5.148-11.124c.108-3.06 1.836-5.22 5.112-5.22 3.132 0 4.824 2.16 4.824 5.22h-9.936Zm21.123 10.8v-8.928c0-4.5 1.692-6.768 5.076-6.768h1.44v-2.916h-1.656c-2.268 0-4.104 1.26-4.86 3.312h-.144l-.252-3.096h-2.628V263h3.024Zm28.709.324c1.98 0 3.708-.504 5.148-1.548 1.44-1.044 2.268-2.412 2.52-4.104h-3.024c-.468 1.908-2.196 2.952-4.644 2.952-3.348 0-5.184-2.304-5.184-5.904h13.104v-1.476c0-2.628-.684-4.788-2.088-6.444-1.404-1.692-3.348-2.52-5.868-2.52-2.7 0-4.788.9-6.192 2.664-1.404 1.764-2.124 4.068-2.124 6.876 0 2.808.72 5.112 2.196 6.876 1.476 1.764 3.528 2.628 6.156 2.628Zm-5.148-11.124c.108-3.06 1.836-5.22 5.112-5.22 3.132 0 4.824 2.16 4.824 5.22h-9.936Zm18.071 10.8 5.112-7.272h.144l5.04 7.272h3.168v-.36l-6.372-8.964 6.264-8.712v-.36h-3.276l-4.824 7.092h-.144l-4.86-7.092h-3.24v.36l6.228 8.784-6.444 8.892v.36h3.204Zm20.103 8.244v-10.8h.144c1.152 1.908 2.988 2.88 5.544 2.88 2.484 0 4.428-.864 5.76-2.628 1.332-1.764 2.016-4.032 2.052-6.876-.036-5.94-2.952-9.54-7.812-9.54-2.556 0-4.392.972-5.544 2.88h-.144l-.396-2.556h-2.628v26.64h3.024Zm5.184-10.62c-3.456 0-5.256-2.88-5.256-6.804 0-3.924 1.8-6.84 5.256-6.84 3.6 0 5.256 2.808 5.256 6.84 0 3.996-1.656 6.804-5.256 6.804Zm20.255 2.7c1.98 0 3.708-.504 5.148-1.548 1.44-1.044 2.268-2.412 2.52-4.104h-3.024c-.468 1.908-2.196 2.952-4.644 2.952-3.348 0-5.184-2.304-5.184-5.904h13.104v-1.476c0-2.628-.684-4.788-2.088-6.444-1.404-1.692-3.348-2.52-5.868-2.52-2.7 0-4.788.9-6.192 2.664-1.404 1.764-2.124 4.068-2.124 6.876 0 2.808.72 5.112 2.196 6.876 1.476 1.764 3.528 2.628 6.156 2.628Zm-5.148-11.124c.108-3.06 1.836-5.22 5.112-5.22 3.132 0 4.824 2.16 4.824 5.22h-9.936ZM468.44 263v-8.928c0-4.5 1.692-6.768 5.076-6.768h1.44v-2.916H473.3c-2.268 0-4.104 1.26-4.86 3.312h-.144l-.252-3.096h-2.628V263h3.024Zm14.207-22.212v-3.528h-3.384v3.528h3.384Zm-.18 22.212v-18.396h-3.024V263h3.024Zm13.029.324c1.98 0 3.708-.504 5.148-1.548 1.44-1.044 2.268-2.412 2.52-4.104h-3.024c-.468 1.908-2.196 2.952-4.644 2.952-3.348 0-5.184-2.304-5.184-5.904h13.104v-1.476c0-2.628-.684-4.788-2.088-6.444-1.404-1.692-3.348-2.52-5.868-2.52-2.7 0-4.788.9-6.192 2.664-1.404 1.764-2.124 4.068-2.124 6.876 0 2.808.72 5.112 2.196 6.876 1.476 1.764 3.528 2.628 6.156 2.628Zm-5.148-11.124c.108-3.06 1.836-5.22 5.112-5.22 3.132 0 4.824 2.16 4.824 5.22h-9.936Zm21.123 10.8v-10.152c0-3.708 1.8-5.868 4.86-5.868 2.844 0 4.248 1.512 4.248 4.536V263h3.024v-11.952c0-4.212-2.412-6.768-6.444-6.768-2.7 0-4.572 1.08-5.688 3.204h-.144l-.252-2.88h-2.628V263h3.024Zm25.158.324c4.644 0 7.2-2.484 7.596-6.516h-3.024c-.252 2.448-1.872 3.852-4.608 3.852-3.6 0-5.256-2.7-5.256-6.84 0-4.068 1.656-6.84 5.256-6.84 2.628 0 4.356 1.476 4.536 3.924h3.024c-.288-3.924-2.844-6.624-7.56-6.624-5.364 0-8.316 3.672-8.316 9.54 0 5.904 2.916 9.504 8.352 9.504Zm19.546 0c1.98 0 3.708-.504 5.148-1.548 1.44-1.044 2.268-2.412 2.52-4.104h-3.024c-.468 1.908-2.196 2.952-4.644 2.952-3.348 0-5.184-2.304-5.184-5.904h13.104v-1.476c0-2.628-.684-4.788-2.088-6.444-1.404-1.692-3.348-2.52-5.868-2.52-2.7 0-4.788.9-6.192 2.664-1.404 1.764-2.124 4.068-2.124 6.876 0 2.808.72 5.112 2.196 6.876 1.476 1.764 3.528 2.628 6.156 2.628Zm-5.148-11.124c.108-3.06 1.836-5.22 5.112-5.22 3.132 0 4.824 2.16 4.824 5.22h-9.936Zm24.184 11.124c2.052 0 3.78-.468 5.184-1.44 1.404-.972 2.088-2.268 2.088-3.888 0-3.06-1.62-4.5-5.22-5.328l-2.88-.54c-2.124-.324-3.204-1.188-3.204-2.592 0-1.728 1.476-2.7 3.78-2.7 2.412 0 4.032 1.116 4.14 3.384h2.952c0-3.6-2.916-5.94-7.092-5.94-4.032 0-6.696 2.196-6.696 5.256 0 2.7 1.656 4.536 4.68 5.148l3.672.684c1.872.396 2.808 1.296 2.808 2.628 0 1.764-1.404 2.628-4.212 2.628-2.736 0-4.5-1.296-4.5-3.708h-3.024c.108 3.996 3.096 6.408 7.524 6.408Zm15.29-.324v-3.96h-3.888V263h3.888Z"
    fill="#718096"
  />
  <a href="https://github.com/matchai">
    <path
      fill-rule="evenodd"
      clip-rule="evenodd"
      d="M73 318c-8.84 0-16 7.16-16 16 0 7.08 4.58 13.06 10.94 15.18.8.14 1.1-.34 1.1-.76 0-.38-.02-1.64-.02-2.98-4.02.74-5.06-.98-5.38-1.88-.18-.46-.96-1.88-1.64-2.26-.56-.3-1.36-1.04-.02-1.06 1.26-.02 2.16 1.16 2.46 1.64 1.44 2.42 3.74 1.74 4.66 1.32.14-1.04.56-1.74 1.02-2.14-3.56-.4-7.28-1.78-7.28-7.9 0-1.74.62-3.18 1.64-4.3-.16-.4-.72-2.04.16-4.24 0 0 1.34-.42 4.4 1.64 1.28-.36 2.64-.54 4-.54 1.36 0 2.72.18 4 .54 3.06-2.08 4.4-1.64 4.4-1.64.88 2.2.32 3.84.16 4.24 1.02 1.12 1.64 2.54 1.64 4.3 0 6.14-3.74 7.5-7.3 7.9.58.5 1.08 1.46 1.08 2.96 0 2.14-.02 3.86-.02 4.4 0 .42.3.92 1.1.76A16.026 16.026 0 0 0 89 334c0-8.84-7.16-16-16-16Z"
      fill="#718096"
    />
  </a>
  <path
    d="M140 324.861a12.418 12.418 0 0 1-3.534.955 6.104 6.104 0 0 0 2.706-3.351 12.545 12.545 0 0 1-3.911 1.47 6.172 6.172 0 0 0-4.492-1.912c-3.399 0-6.154 2.715-6.154 6.06 0 .474.053.937.158 1.38a17.552 17.552 0 0 1-12.683-6.332 5.945 5.945 0 0 0-.832 3.045 6.032 6.032 0 0 0 2.737 5.045 6.237 6.237 0 0 1-2.787-.761v.075c0 2.937 2.122 5.387 4.934 5.945a6.322 6.322 0 0 1-1.619.211c-.398 0-.783-.037-1.16-.112a6.153 6.153 0 0 0 5.748 4.21 12.471 12.471 0 0 1-7.643 2.591c-.498 0-.986-.03-1.468-.084a17.6 17.6 0 0 0 9.434 2.727c11.32 0 17.509-9.236 17.509-17.244l-.021-.785a12.191 12.191 0 0 0 3.078-3.133ZM193.938 336.578v11.069h-6.417v-10.328c0-2.595-.928-4.365-3.25-4.365-1.773 0-2.829 1.194-3.292 2.348-.17.412-.213.987-.213 1.564v10.781h-6.421s.087-17.49 0-19.304h6.421v2.736l-.042.063h.042v-.063c.852-1.312 2.374-3.189 5.783-3.189 4.223 0 7.389 2.76 7.389 8.688Zm-26.306-17.539c-2.195 0-3.632 1.44-3.632 3.334 0 1.853 1.395 3.336 3.548 3.336h.041c2.24 0 3.631-1.483 3.631-3.336-.039-1.894-1.39-3.334-3.587-3.334h-.001Zm-3.251 28.608h6.417v-19.304h-6.417v19.304Z"
    fill="#718096"
  />
  <defs>
    <linearGradient
      id="a"
      x1="400"
      y1="0"
      x2="400"
      y2="420"
      gradientUnits="userSpaceOnUse"
    >
      <stop stop-color="#0849A0" stop-opacity=".1" />
      <stop offset=".297" stop-color="#0849A0" stop-opacity="0" />
    </linearGradient>
  </defs>
</svg>
